# xmcd
#
# Track frame offsets:
#  150
#  13349
#  26259
#  39395
#  51824
#  64540
#  78276
#  90067
#  101219
#  114018
#  125756
#  136777
#  147143
#  158277
#  170425
#  182253
#  194692
#  203645
#  213770
#  224528
#  232407
#  242566
#  254365
#  266545
#  286283
#
# Disc length: 3989 seconds
#
# Revision: 1
# Processed by: cddbd v1.5.2PL0 Copyright (c) Steve Scherf et al.
# Submitted via: AltoMP3_Maker 3.0
#
DISCID=510f9319
DTITLE=The 5 Royales - The Very Best Of The 5 Royales
DYEAR=1900
DGENRE=
TTITLE0=Monkey Hips And Rice
TTITLE1=I'm Gonna Run It Down
TTITLE2=One Mistake
TTITLE3=How I Wonder
TTITLE4=I Need Your Lovin' Baby
TTITLE5=Women About To Make Me Go Crazy
TTITLE6=Someone Made For You
TTITLE7=Right Around The Corner
TTITLE8=My Wants For Love
TTITLE9=Come On And Save Me
TTITLE10=Just As I Am
TTITLE11=Mine Forevermore
TTITLE12=Thirty Second Lover
TTITLE13=Tears Of Joy
TTITLE14=Think
TTITLE15=Dedicated To The One I Love
TTITLE16=The Feeling Is Real
TTITLE17=Tell The Truth
TTITLE18=Don't Let It Be In Vain
TTITLE19=Your Only Love
TTITLE20=The Slummer The Slum
TTITLE21=Miracle Of Love
TTITLE22=I Know It's Hard But It's Fair
TTITLE23=I'm With You
TTITLE24=Don't Give No More Than You Can Take
EXTD=
EXTT0=
EXTT1=
EXTT2=
EXTT3=
EXTT4=
EXTT5=
EXTT6=
EXTT7=
EXTT8=
EXTT9=
EXTT10=
EXTT11=
EXTT12=
EXTT13=
EXTT14=
EXTT15=
EXTT16=
EXTT17=
EXTT18=
EXTT19=
EXTT20=
EXTT21=
EXTT22=
EXTT23=
EXTT24=
PLAYORDER=
